<?xml version="1.0" encoding="UTF-8" standalone="no"?>
<!-- Created with Inkscape (http://www.inkscape.org/) -->

<svg
   xmlns:dc="http://purl.org/dc/elements/1.1/"
   xmlns:cc="http://creativecommons.org/ns#"
   xmlns:rdf="http://www.w3.org/1999/02/22-rdf-syntax-ns#"
   xmlns:svg="http://www.w3.org/2000/svg"
   xmlns="http://www.w3.org/2000/svg"
   xmlns:sodipodi="http://sodipodi.sourceforge.net/DTD/sodipodi-0.dtd"
   xmlns:inkscape="http://www.inkscape.org/namespaces/inkscape"
   width="800px"
   height="600px"
   viewBox="0 0 800 600"
   version="1.1"
   id="SVGRoot"
   inkscape:version="0.92.4 (5da689c313, 2019-01-14)"
   sodipodi:docname="drawing-3.svg">
  <defs
     id="defs1427" />
  <sodipodi:namedview
     id="base"
     pagecolor="#ffffff"
     bordercolor="#666666"
     borderopacity="1.0"
     inkscape:pageopacity="0.0"
     inkscape:pageshadow="2"
     inkscape:zoom="2"
     inkscape:cx="627.10364"
     inkscape:cy="362.5"
     inkscape:document-units="px"
     inkscape:current-layer="layer1"
     showgrid="false"
     inkscape:window-width="3440"
     inkscape:window-height="1346"
     inkscape:window-x="-11"
     inkscape:window-y="-11"
     inkscape:window-maximized="1"
     showguides="true"
     inkscape:guide-bbox="true">
    <sodipodi:guide
       position="795.5,158"
       orientation="1,0"
       id="guide2618"
       inkscape:locked="false" />
  </sodipodi:namedview>
  <metadata
     id="metadata1430">
    <rdf:RDF>
      <cc:Work
         rdf:about="">
        <dc:format>image/svg+xml</dc:format>
        <dc:type
           rdf:resource="http://purl.org/dc/dcmitype/StillImage" />
        <dc:title></dc:title>
      </cc:Work>
    </rdf:RDF>
  </metadata>
  <g
     inkscape:label="Layer 1"
     inkscape:groupmode="layer"
     id="layer1">
    <text
       xml:space="preserve"
       style="font-style:normal;font-variant:normal;font-weight:normal;font-stretch:normal;font-size:192px;line-height:1.25;font-family:Bahnschrift;-inkscape-font-specification:'Bahnschrift, Normal';font-variant-ligatures:normal;font-variant-caps:normal;font-variant-numeric:normal;font-feature-settings:normal;text-align:start;letter-spacing:0px;word-spacing:0px;writing-mode:lr-tb;text-anchor:start;fill:#000000;fill-opacity:1;stroke:none"
       x="364.5"
       y="374"
       id="text2013"
       inkscape:export-xdpi="350"
       inkscape:export-ydpi="350"><tspan
         sodipodi:role="line"
         id="tspan2011"
         x="364.5"
         y="374"
         style="font-size:74.66666412px;fill:#800080">Technologies</tspan></text>
    <path
       style="font-style:normal;font-variant:normal;font-weight:normal;font-stretch:normal;font-size:192.78892517px;line-height:1.25;font-family:Bahnschrift;-inkscape-font-specification:Bahnschrift;font-variant-ligatures:normal;font-variant-caps:normal;font-variant-numeric:normal;font-feature-settings:normal;text-align:start;letter-spacing:0px;word-spacing:0px;writing-mode:lr-tb;text-anchor:start;fill:#0088aa;fill-opacity:1;stroke:#2fdee8;stroke-width:1.00410903;stroke-opacity:1"
       d="M 60.611328 150.51562 C 45.988991 150.51562 34.096088 154.06082 24.933594 161.15234 C 15.771099 168.24386 11.189453 177.78298 11.189453 189.76953 C 11.189453 195.60591 12.130968 200.59633 14.013672 204.73828 C 15.896376 208.81747 18.345095 212.33168 21.357422 215.28125 C 24.369749 218.23082 27.789022 220.74153 31.617188 222.8125 C 35.445352 224.88347 39.273398 226.85948 43.101562 228.74219 C 46.615944 230.37386 50.004224 232.00504 53.267578 233.63672 C 56.530932 235.2684 59.450408 237.15142 62.023438 239.28516 C 64.596467 241.35613 66.636415 243.74091 68.142578 246.43945 C 69.648742 249.07524 70.400391 252.3066 70.400391 256.13477 C 70.400391 262.9125 67.953625 268.34073 63.058594 272.41992 C 58.226319 276.43636 51.825584 278.44531 43.855469 278.44531 C 38.332869 278.44531 33.311459 277.41082 28.792969 275.33984 L 21.732422 246.5332 L 15.896484 247.47461 L 10.908203 281.36328 L 11.472656 282.21094 C 22.517855 285.78808 33.719142 287.57617 45.078125 287.57617 C 60.830085 287.57617 73.507583 283.93604 83.109375 276.65625 C 92.711167 269.37646 97.511719 259.36659 97.511719 246.62695 C 97.511719 240.72781 96.539211 235.70836 94.59375 231.56641 C 92.711046 227.42446 90.231334 223.87926 87.15625 220.92969 C 84.081166 217.91736 80.599907 215.34272 76.708984 213.20898 C 72.818062 211.0125 68.957072 209.00549 65.128906 207.18555 C 61.677282 205.55387 58.319995 203.92269 55.056641 202.29102 C 51.856043 200.65934 49.000507 198.8073 46.490234 196.73633 C 43.979962 194.66535 41.97296 192.31157 40.466797 189.67578 C 38.960633 187.04 38.207031 183.87062 38.207031 180.16797 C 38.207031 174.0178 40.496878 168.99834 45.078125 165.10742 C 49.722129 161.2165 55.371215 159.26953 62.023438 159.26953 C 66.730198 159.26953 71.090986 160.05413 75.107422 161.62305 L 81.980469 186.85156 L 87.15625 186.00391 L 92.898438 155.69336 L 92.333984 154.8457 C 80.472947 151.95889 69.899336 150.51562 60.611328 150.51562 z M 355.25391 150.60938 L 345.08789 152.11523 L 298.20898 266.30273 C 296.82833 269.56609 295.57298 272.01285 294.44336 273.64453 C 293.31374 275.21345 291.55662 276.34288 289.17188 277.0332 L 279.09961 280.04492 L 279.57031 284.75195 C 287.22664 284.56368 294.0342 284.4707 299.99609 284.4707 C 305.70696 284.4707 313.11315 284.56368 322.21289 284.75195 L 321.92969 279.85742 L 312.89258 277.22266 C 311.7002 276.90887 310.82262 276.46911 310.25781 275.9043 C 309.693 275.33949 309.41016 274.5239 309.41016 273.45703 C 309.41016 272.32741 309.75499 270.72722 310.44531 268.65625 C 311.19839 266.52252 312.23484 263.72897 313.55273 260.27734 L 320.23633 242.67383 L 323.74023 242.67383 L 327.4707 232.88477 L 324.00195 232.88477 L 336.89844 198.80664 C 338.21633 195.29226 339.43874 191.90398 340.56836 188.64062 C 341.57247 191.90398 342.6709 195.32325 343.86328 198.90039 L 355.44336 232.88477 L 340.44727 232.88477 L 336.71484 242.67383 L 358.83203 242.67383 L 365.04492 260.37109 C 366.2373 263.6972 367.14587 266.39582 367.77344 268.4668 C 368.40101 270.47501 368.71484 272.10619 368.71484 273.36133 C 368.71484 274.49095 368.43395 275.33949 367.86914 275.9043 C 367.30433 276.46911 366.39381 276.93987 365.13867 277.31641 L 355.81836 280.04492 L 356.28906 284.75195 C 367.08323 284.56368 378.16055 284.4707 389.51953 284.4707 C 398.11721 284.4707 406.65283 284.56368 415.125 284.75195 L 414.8418 280.04492 L 405.61719 277.31641 C 403.23243 276.62608 401.38039 275.52765 400.0625 274.02148 C 398.80736 272.45256 397.39509 269.4711 395.82617 265.07812 L 355.25391 150.60938 z M 736.31445 150.60938 L 726.14648 152.11523 L 679.26758 266.30273 C 677.88693 269.56609 676.63158 272.01285 675.50195 273.64453 C 674.37233 275.21345 672.61523 276.34288 670.23047 277.0332 L 662.53906 279.33398 C 661.34384 278.96862 660.20345 278.54854 659.12305 278.06836 C 657.99342 277.5663 656.89499 276.97157 655.82812 276.28125 C 654.82403 275.59093 653.75658 274.77338 652.62695 273.83203 C 650.55598 271.76106 648.32812 268.93847 645.94336 265.36133 C 643.62136 261.78419 641.01767 257.6733 638.13086 253.0293 C 635.24405 248.32254 632.35752 243.55298 629.4707 238.7207 C 626.64665 233.88843 622.59774 227.58067 617.32617 219.79883 C 626.86521 216.72374 634.08348 212.33196 638.97852 206.62109 C 643.9363 200.84747 646.41406 193.28436 646.41406 183.93359 C 646.41406 173.57872 642.36711 165.70373 634.27148 160.30664 C 626.23861 154.90955 614.1578 152.21094 598.0293 152.21094 C 596.58589 152.21094 594.57694 152.24193 592.00391 152.30469 C 589.49363 152.36744 586.35525 152.46042 582.58984 152.58594 C 578.44789 152.71145 574.93368 152.83738 572.04688 152.96289 C 569.16006 153.02565 566.74429 153.05664 564.79883 153.05664 C 555.57358 153.05664 546.56916 152.93267 537.7832 152.68164 L 538.06445 157.48242 L 550.67969 161.15234 C 552.12309 161.59164 552.87474 162.62809 552.9375 164.25977 C 553.00026 166.3935 553.0332 168.74728 553.0332 171.32031 C 553.09596 173.89334 553.12695 176.74888 553.12695 179.88672 L 553.12695 254.91211 C 553.12695 258.67752 553.09596 262.12778 553.0332 265.26562 C 553.0332 268.34071 553.00026 271.13426 552.9375 273.64453 C 552.81199 275.15069 551.9654 276.1232 550.39648 276.5625 L 537.7832 280.04492 L 538.25391 284.75195 C 546.85159 284.56368 556.6406 284.4707 567.62305 284.4707 C 577.91516 284.4707 586.54376 284.56368 593.50977 284.75195 L 593.22852 280.04492 L 583.4375 276.8457 C 582.05685 276.40641 581.33619 275.18205 581.27344 273.17383 C 581.21068 270.72631 581.14674 268.0277 581.08398 265.07812 L 581.08398 254.91211 L 581.08398 223.4707 L 585.03906 223.56445 C 586.04317 223.62721 586.85876 223.78413 587.48633 224.03516 C 588.17665 224.22343 588.80433 224.56826 589.36914 225.07031 C 589.99671 225.50961 590.59144 226.20123 591.15625 227.14258 C 591.78382 228.08393 592.56841 229.27534 593.50977 230.71875 C 596.64761 235.73929 599.62907 240.82269 602.45312 245.96875 C 605.33994 251.11481 608.13349 255.9793 610.83203 260.56055 C 613.53057 265.14179 616.07227 269.25073 618.45703 272.89062 C 620.90455 276.53053 623.57022 279.48099 626.45703 281.74023 C 628.40249 283.2464 630.63036 284.40682 633.14062 285.22266 C 635.6509 286.03849 640.04463 286.44727 646.32031 286.44727 C 654.22767 286.44727 661.25608 286.0075 667.40625 285.12891 L 667.36719 284.62109 C 672.28321 284.5316 676.9461 284.4707 681.05664 284.4707 C 686.76751 284.4707 694.17175 284.56368 703.27148 284.75195 L 702.99023 279.85742 L 693.95312 277.22266 C 692.76076 276.90887 691.88122 276.46911 691.31641 275.9043 C 690.75159 275.33949 690.46875 274.5239 690.46875 273.45703 C 690.46875 272.32741 690.81553 270.72722 691.50586 268.65625 C 692.25894 266.52252 693.29344 263.72897 694.61133 260.27734 L 701.29492 242.67383 L 705.01172 242.67383 L 708.74219 232.88477 L 705.06055 232.88477 L 717.95703 198.80664 C 719.27492 195.29226 720.49928 191.90398 721.62891 188.64062 C 722.63302 191.90398 723.73145 195.32325 724.92383 198.90039 L 736.50195 232.88477 L 721.71875 232.88477 L 717.98633 242.67383 L 739.89062 242.67383 L 746.10352 260.37109 C 747.2959 263.6972 748.20642 266.39582 748.83398 268.4668 C 749.46155 270.47501 749.77539 272.10619 749.77539 273.36133 C 749.77539 274.49095 749.49255 275.33949 748.92773 275.9043 C 748.36292 276.46911 747.4524 276.93987 746.19727 277.31641 L 736.87891 280.04492 L 737.34961 284.75195 C 748.14378 284.56368 759.21915 284.4707 770.57812 284.4707 C 779.17581 284.4707 787.71142 284.56368 796.18359 284.75195 L 795.90039 280.04492 L 786.67578 277.31641 C 784.29102 276.62608 782.43899 275.52765 781.12109 274.02148 C 779.86596 272.45256 778.45564 269.4711 776.88672 265.07812 L 736.31445 150.60938 z M 110.4082 152.68164 L 110.69141 157.48242 L 123.30469 161.15234 C 124.74809 161.59164 125.5017 162.62809 125.56445 164.25977 C 125.68997 168.40172 125.75195 173.61104 125.75195 179.88672 L 125.75195 254.91211 C 125.75195 262.31741 125.68997 268.56123 125.56445 273.64453 C 125.5017 275.08794 124.65511 276.06045 123.02344 276.5625 L 110.4082 280.04492 L 110.87891 284.75195 C 119.6021 284.56368 126.66151 284.4707 132.05859 284.4707 C 137.51844 284.4707 143.95212 284.56368 151.35742 284.75195 L 151.07422 280.04492 L 140.7207 276.75195 C 139.15178 276.31266 138.33619 275.18128 138.27344 273.36133 C 138.14792 268.4663 138.08398 262.31741 138.08398 254.91211 L 138.08398 196.64258 C 138.08398 193.81852 138.022 187.95053 137.89648 179.03906 C 140.15573 185.31474 142.3526 190.99482 144.48633 196.07812 L 180.25586 285.22266 L 188.72852 284.4707 L 226.19531 192.6875 C 228.58007 186.91387 230.83892 181.32873 232.97266 175.93164 C 232.78439 185.15689 232.68945 191.40266 232.68945 194.66602 L 232.68945 254.91211 C 232.68945 262.31741 232.59647 268.4663 232.4082 273.36133 C 232.34545 275.18128 231.56085 276.31266 230.05469 276.75195 L 219.22852 280.04492 L 219.69922 284.75195 C 226.8535 284.56368 235.73394 284.4707 246.33984 284.4707 C 257.25953 284.4707 267.20546 284.56368 276.17969 284.75195 L 275.80469 280.04492 L 263.56641 276.5625 C 261.93473 276.06045 261.08815 275.08794 261.02539 273.64453 C 260.89988 268.56123 260.83594 262.31741 260.83594 254.91211 L 260.83594 179.88672 C 260.83594 173.61104 260.89988 168.40172 261.02539 164.25977 C 261.08815 162.62809 261.8398 161.59164 263.2832 161.15234 L 276.17969 157.48242 L 275.61523 152.68164 C 267.20582 152.93267 259.89456 153.05664 253.68164 153.05664 C 246.71563 153.05664 238.90263 152.93267 230.24219 152.68164 L 196.44727 235.61328 C 195.06662 239.19042 193.74928 242.58065 192.49414 245.78125 C 191.36452 242.58065 190.07817 239.19042 188.63477 235.61328 L 155.78125 152.68164 C 148.31319 152.93267 141.00193 153.05664 133.84766 153.05664 C 128.63884 153.05664 120.82583 152.93267 110.4082 152.68164 z M 421.80859 152.68164 L 422.08984 157.48242 L 434.70508 161.15234 C 436.14848 161.59164 436.90013 162.62809 436.96289 164.25977 C 437.02565 166.3935 437.05859 168.74728 437.05859 171.32031 C 437.12135 173.89334 437.15234 176.74888 437.15234 179.88672 L 437.15234 254.91211 C 437.15234 258.67752 437.12135 262.12778 437.05859 265.26562 C 437.05859 268.34071 437.02565 271.13426 436.96289 273.64453 C 436.83738 275.15069 435.99079 276.1232 434.42188 276.5625 L 421.80859 280.04492 L 422.2793 284.75195 C 430.87698 284.56368 439.22273 284.4707 447.31836 284.4707 L 472.26367 284.4707 C 487.07428 284.4707 502.29348 284.56368 517.91992 284.75195 L 518.57812 284.09375 L 520.83789 248.88672 L 515.0957 249.73438 L 503.23438 274.49219 L 465.58008 274.49219 C 465.45456 267.71445 465.39258 260.87395 465.39258 253.9707 L 465.39258 221.68164 L 470.38086 221.68164 C 475.90346 221.68164 481.86638 221.74558 488.26758 221.87109 C 489.71098 221.93385 490.68349 222.81143 491.18555 224.50586 L 494.66797 237.7793 L 500.88086 237.30859 C 500.69259 228.27161 500.59961 221.55704 500.59961 217.16406 C 500.59961 212.64557 500.69259 205.83607 500.88086 196.73633 L 494.66797 197.01758 L 491.2793 209.91406 C 490.77724 211.54574 489.7098 212.39427 488.07812 212.45703 C 481.80244 212.58254 475.93641 212.64453 470.47656 212.64453 L 465.39258 212.64453 L 465.39258 162.6582 L 501.82227 162.6582 L 507.84766 185.5332 L 512.92969 184.78125 L 518.76758 153.43359 L 518.10742 152.68164 C 501.72789 152.93267 485.91397 153.05664 470.66406 153.05664 L 446.84766 153.05664 C 438.9403 153.05664 430.59455 152.93267 421.80859 152.68164 z M 591.3457 161.24805 C 599.75512 161.24805 605.93696 163.38097 609.89062 167.64844 C 613.90706 171.85314 615.91406 178.56772 615.91406 187.79297 C 615.91406 197.332 613.84312 204.36042 609.70117 208.87891 C 605.55922 213.33464 599.03256 215.5625 590.12109 215.5625 C 587.42255 215.5625 584.4101 215.46952 581.08398 215.28125 L 581.08398 162 C 583.15496 161.74897 585.00699 161.56106 586.63867 161.43555 C 588.33311 161.31003 589.9023 161.24805 591.3457 161.24805 z "
       id="text2578"
       inkscape:export-xdpi="350"
       inkscape:export-ydpi="350" />
  </g>
</svg>
